<svg width="24824" height="5658" viewBox="0 0 24824 5658" fill="none" xmlns="http://www.w3.org/2000/svg">
<path d="M5195.24 837.116H5483.83C5607.31 837.116 5700.76 854.453 5764.19 889.127C5827.62 923.801 5859.33 984.693 5859.33 1071.8C5859.33 1106.9 5853.62 1138.61 5842.2 1166.94C5831.21 1195.27 5815.14 1218.53 5794 1236.71C5772.86 1254.9 5747.06 1266.74 5716.62 1272.23V1278.58C5747.48 1284.92 5775.39 1295.91 5800.34 1311.56C5825.29 1326.78 5845.16 1349.19 5859.96 1378.79C5875.19 1407.97 5882.8 1446.87 5882.8 1495.5C5882.8 1551.74 5869.05 1599.95 5841.57 1640.12C5814.08 1680.29 5774.76 1711.16 5723.59 1732.72C5672.85 1753.87 5612.38 1764.44 5542.19 1764.44H5195.24V837.116ZM5391.86 1204.37H5506.03C5563.12 1204.37 5602.66 1195.49 5624.64 1177.73C5646.63 1159.54 5657.63 1132.9 5657.63 1097.81C5657.63 1062.29 5644.52 1036.92 5618.3 1021.69C5592.51 1006.05 5551.49 998.224 5495.25 998.224H5391.86V1204.37ZM5391.86 1360.4V1602.06H5519.99C5579.19 1602.06 5620.42 1590.64 5643.67 1567.81C5666.93 1544.98 5678.56 1514.32 5678.56 1475.84C5678.56 1453 5673.48 1432.92 5663.34 1415.58C5653.19 1398.24 5636.06 1384.71 5611.96 1374.99C5588.28 1365.26 5555.51 1360.4 5513.65 1360.4H5391.86ZM6827.88 1764.44H6631.89V1364.2H6264.64V1764.44H6068.01V837.116H6264.64V1200.56H6631.89V837.116H6827.88V1764.44ZM7630.25 1764.44L7563.01 1543.71H7224.94L7157.71 1764.44H6945.86L7273.15 833.31H7513.54L7842.1 1764.44H7630.25ZM7516.08 1378.79L7448.84 1163.14C7444.61 1148.76 7438.9 1130.37 7431.72 1107.95C7424.95 1085.12 7417.97 1062.08 7410.78 1038.82C7404.02 1015.14 7398.52 994.63 7394.29 977.293C7390.06 994.63 7384.14 1016.2 7376.53 1041.99C7369.34 1067.36 7362.37 1091.46 7355.6 1114.3C7348.84 1137.13 7343.97 1153.41 7341.01 1163.14L7274.41 1378.79H7516.08ZM8229.64 837.116C8313.79 837.116 8383.14 847.265 8437.69 867.562C8492.66 887.859 8533.46 918.516 8560.1 959.533C8586.74 1000.55 8600.06 1052.35 8600.06 1114.93C8600.06 1157.22 8592.03 1194.22 8575.96 1225.93C8559.89 1257.65 8538.75 1284.5 8512.53 1306.49C8486.32 1328.47 8457.99 1346.45 8427.54 1360.4L8700.28 1764.44H8482.09L8260.72 1408.6H8156.07V1764.44H7959.44V837.116H8229.64ZM8215.69 998.224H8156.07V1248.77H8219.49C8284.61 1248.77 8331.13 1237.98 8359.04 1216.42C8387.37 1194.43 8401.53 1162.29 8401.53 1120.01C8401.53 1076.03 8386.31 1044.74 8355.87 1026.13C8325.84 1007.53 8279.12 998.224 8215.69 998.224ZM9384.67 1764.44L9317.44 1543.71H8979.37L8912.13 1764.44H8700.28L9027.57 833.31H9267.96L9596.52 1764.44H9384.67ZM9270.5 1378.79L9203.27 1163.14C9199.04 1148.76 9193.33 1130.37 9186.14 1107.95C9179.38 1085.12 9172.4 1062.08 9165.21 1038.82C9158.44 1015.14 9152.95 994.63 9148.72 977.293C9144.49 994.63 9138.57 1016.2 9130.96 1041.99C9123.77 1067.36 9116.79 1091.46 9110.03 1114.3C9103.26 1137.13 9098.4 1153.41 9095.44 1163.14L9028.84 1378.79H9270.5ZM10071.6 1764.44H9874.97V1000.76H9623.16V837.116H10323.4V1000.76H10071.6V1764.44ZM10466.1 1764.44V837.116H10662.8V1764.44H10466.1ZM11961.1 837.116L11645.9 1764.44H11431.5L11116.9 837.116H11315.4L11489.9 1388.94C11492.8 1398.24 11497.7 1415.79 11504.4 1441.59C11511.2 1466.96 11518 1494.02 11524.7 1522.78C11531.9 1551.11 11536.8 1574.58 11539.3 1593.18C11541.9 1574.58 11546.3 1551.11 11552.6 1522.78C11559.4 1494.44 11566 1467.59 11572.3 1442.22C11579.1 1416.43 11583.9 1398.67 11586.9 1388.94L11762.6 837.116H11961.1ZM12078.5 1764.44V837.116H12275.1V1764.44H12078.5ZM13277.9 1291.9C13277.9 1396.34 13257.8 1483.66 13217.6 1553.86C13177.9 1623.63 13120.2 1676.27 13044.5 1711.79C12968.8 1746.89 12877.7 1764.44 12771.1 1764.44H12508.5V837.116H12799.6C12896.9 837.116 12981.3 854.453 13052.7 889.127C13124.2 923.379 13179.6 974.333 13218.9 1041.99C13258.2 1109.22 13277.9 1192.53 13277.9 1291.9ZM13073.7 1296.97C13073.7 1228.47 13063.5 1172.23 13043.2 1128.25C13023.3 1083.85 12993.7 1051.08 12954.4 1029.94C12915.5 1008.8 12867.3 998.224 12809.8 998.224H12705.1V1602.06H12789.5C12885.5 1602.06 12956.7 1576.48 13003.3 1525.31C13050.2 1474.15 13073.7 1398.03 13073.7 1296.97ZM13758.7 1218.95L13952.1 837.116H14164L13856.4 1403.53V1764.44H13661V1409.87L13353.4 837.116H13566.5L13758.7 1218.95ZM14848.4 1764.44L14781.1 1543.71H14443.1L14375.8 1764.44H14164L14491.3 833.31H14731.7L15060.2 1764.44H14848.4ZM14734.2 1378.79L14667 1163.14C14662.7 1148.76 14657 1130.37 14649.9 1107.95C14643.1 1085.12 14636.1 1062.08 14628.9 1038.82C14622.2 1015.14 14616.7 994.63 14612.4 977.293C14608.2 994.63 14602.3 1016.2 14594.7 1041.99C14587.5 1067.36 14580.5 1091.46 14573.7 1114.3C14567 1137.13 14562.1 1153.41 14559.1 1163.14L14492.5 1378.79H14734.2ZM15473.8 837.116C15593.5 837.116 15680.8 862.91 15735.7 914.499C15790.7 965.664 15818.2 1036.28 15818.2 1126.35C15818.2 1166.94 15812.1 1205.85 15799.8 1243.06C15787.5 1279.85 15767.5 1312.62 15739.5 1341.37C15712.1 1370.12 15675.3 1392.96 15629.2 1409.87C15583.1 1426.36 15526.2 1434.61 15458.6 1434.61H15374.2V1764.44H15177.6V837.116H15473.8ZM15463.6 998.224H15374.2V1273.5H15438.9C15475.7 1273.5 15507.6 1268.64 15534.7 1258.91C15561.7 1249.19 15582.7 1233.97 15597.5 1213.25C15612.3 1192.53 15619.7 1165.89 15619.7 1133.33C15619.7 1087.66 15607 1053.83 15581.6 1031.84C15556.2 1009.43 15516.9 998.224 15463.6 998.224ZM16527.3 1764.44H15993.3V837.116H16527.3V998.224H16189.9V1201.83H16503.9V1362.94H16189.9V1602.06H16527.3V1764.44ZM17255.5 1764.44H16721.4V837.116H17255.5V998.224H16918V1201.83H17232V1362.94H16918V1602.06H17255.5V1764.44ZM17807.3 1764.44H17610.7V1000.76H17358.9V837.116H18059.1V1000.76H17807.3V1764.44ZM18961.7 1764.44H18765.7V1364.2H18398.5V1764.44H18201.8V837.116H18398.5V1200.56H18765.7V837.116H18961.7V1764.44ZM19337.2 837.116L19346.1 851.07C19338.5 881.939 19328.5 914.921 19316.3 950.018C19304.4 984.693 19291.3 1019.58 19276.9 1054.68C19263 1089.77 19248.8 1123.18 19234.4 1154.89H19095.5C19101.5 1129.52 19107.4 1102.88 19113.3 1074.97C19119.6 1047.06 19125.6 1019.16 19131.1 991.247C19137 963.338 19142.3 936.276 19146.9 910.059C19151.6 883.842 19155.6 859.527 19159 837.116H19337.2ZM20025.4 1506.92C20025.4 1561.89 20012.1 1609.67 19985.4 1650.27C19958.8 1690.86 19919.9 1722.15 19868.7 1744.14C19818 1766.13 19756.2 1777.12 19683.5 1777.12C19651.4 1777.12 19619.9 1775.01 19589 1770.78C19558.6 1766.55 19529.2 1760.42 19500.8 1752.39C19472.9 1743.93 19446.3 1733.57 19420.9 1721.31V1538.63C19464.9 1558.08 19510.6 1575.63 19557.9 1591.28C19605.3 1606.92 19652.2 1614.75 19698.7 1614.75C19730.9 1614.75 19756.7 1610.52 19776.1 1602.06C19796 1593.6 19810.4 1581.98 19819.3 1567.18C19828.1 1552.38 19832.6 1535.46 19832.6 1516.43C19832.6 1493.18 19824.8 1473.3 19809.1 1456.81C19793.5 1440.32 19771.9 1424.88 19744.4 1410.51C19717.3 1396.13 19686.7 1380.7 19652.4 1364.2C19630.9 1354.06 19607.4 1341.79 19582 1327.42C19556.7 1312.62 19532.6 1294.65 19509.7 1273.5C19486.9 1252.36 19468.1 1226.78 19453.3 1196.75C19438.9 1166.31 19431.7 1129.94 19431.7 1087.66C19431.7 1032.26 19444.4 984.904 19469.8 945.578C19495.1 906.253 19531.3 876.23 19578.2 855.51C19625.6 834.368 19681.4 823.796 19745.7 823.796C19793.9 823.796 19839.8 829.505 19883.3 840.922C19927.3 851.916 19973.2 867.985 20021 889.127L19957.5 1041.99C19914.8 1024.65 19876.6 1011.33 19842.7 1002.03C19808.9 992.304 19774.4 987.441 19739.3 987.441C19714.8 987.441 19693.9 991.458 19676.5 999.492C19659.2 1007.1 19646.1 1018.1 19637.2 1032.48C19628.3 1046.43 19623.9 1062.71 19623.9 1081.31C19623.9 1103.3 19630.2 1121.91 19642.9 1137.13C19656 1151.93 19675.5 1166.31 19701.3 1180.26C19727.5 1194.22 19760.1 1210.5 19799 1229.1C19846.3 1251.51 19886.7 1274.98 19920.1 1299.51C19953.9 1323.61 19979.9 1352.15 19998.1 1385.14C20016.3 1417.7 20025.4 1458.29 20025.4 1506.92ZM5589.12 2394.44C5551.49 2394.44 5518.09 2401.84 5488.91 2416.64C5460.15 2431.02 5435.84 2451.95 5415.97 2479.43C5396.51 2506.92 5381.71 2540.11 5371.57 2579.02C5361.42 2617.92 5356.34 2661.69 5356.34 2710.31C5356.34 2775.86 5364.38 2831.88 5380.45 2878.4C5396.94 2924.49 5422.31 2959.8 5456.56 2984.32C5490.81 3008.43 5535 3020.48 5589.12 3020.48C5626.76 3020.48 5664.39 3016.25 5702.03 3007.79C5740.08 2999.34 5781.31 2987.28 5825.71 2971.64V3136.55C5784.7 3153.47 5744.31 3165.52 5704.56 3172.71C5664.82 3180.32 5620.2 3184.12 5570.73 3184.12C5475.17 3184.12 5396.51 3164.46 5334.78 3125.13C5273.46 3085.39 5228.01 3029.99 5198.41 2958.95C5168.81 2887.49 5154.01 2804.19 5154.01 2709.05C5154.01 2638.85 5163.52 2574.58 5182.55 2516.22C5201.58 2457.87 5229.49 2407.34 5266.27 2364.63C5303.06 2321.92 5348.52 2288.94 5402.65 2265.68C5456.77 2242.42 5518.93 2230.8 5589.12 2230.8C5635.22 2230.8 5681.31 2236.72 5727.4 2248.56C5773.91 2259.97 5818.31 2275.83 5860.6 2296.13L5797.17 2455.97C5762.5 2439.48 5727.61 2425.1 5692.51 2412.84C5657.42 2400.57 5622.95 2394.44 5589.12 2394.44ZM6865.3 2706.51C6865.3 2777.97 6856.42 2843.09 6838.66 2901.87C6820.9 2960.22 6793.84 3010.54 6757.47 3052.83C6721.53 3095.11 6675.86 3127.67 6620.47 3150.51C6565.07 3172.92 6499.53 3184.12 6423.84 3184.12C6348.15 3184.12 6282.61 3172.92 6227.21 3150.51C6171.82 3127.67 6125.94 3095.11 6089.57 3052.83C6053.63 3010.54 6026.78 2960.01 6009.02 2901.23C5991.26 2842.46 5982.38 2777.12 5982.38 2705.24C5982.38 2609.25 5998.03 2525.74 6029.32 2454.7C6061.03 2383.24 6109.66 2327.84 6175.2 2288.52C6240.74 2249.19 6324.05 2229.53 6425.11 2229.53C6525.75 2229.53 6608.42 2249.19 6673.11 2288.52C6738.23 2327.84 6786.44 2383.24 6817.73 2454.7C6849.44 2526.16 6865.3 2610.1 6865.3 2706.51ZM6188.52 2706.51C6188.52 2771.2 6196.56 2827.02 6212.62 2873.96C6229.12 2920.47 6254.7 2956.42 6289.37 2981.79C6324.05 3006.74 6368.87 3019.21 6423.84 3019.21C6479.66 3019.21 6524.9 3006.74 6559.58 2981.79C6594.25 2956.42 6619.41 2920.47 6635.06 2873.96C6651.13 2827.02 6659.16 2771.2 6659.16 2706.51C6659.16 2609.25 6640.98 2532.71 6604.61 2476.9C6568.25 2421.08 6508.41 2393.17 6425.11 2393.17C6369.72 2393.17 6324.47 2405.86 6289.37 2431.23C6254.7 2456.18 6229.12 2492.12 6212.62 2539.06C6196.56 2585.57 6188.52 2641.39 6188.52 2706.51ZM7057.49 3171.44V2244.12H7254.12V3009.06H7630.25V3171.44H7057.49ZM7791.99 3171.44V2244.12H7988.62V3009.06H8364.75V3171.44H7791.99ZM9060.55 3171.44H8526.49V2244.12H9060.55V2405.22H8723.12V2608.83H9037.09V2769.94H8723.12V3009.06H9060.55V3171.44ZM9606.67 2650.69H9974.55V3131.48C9925.93 3147.55 9875.4 3160.44 9822.96 3170.17C9770.53 3179.47 9711.12 3184.12 9644.73 3184.12C9552.55 3184.12 9474.32 3165.94 9410.04 3129.57C9345.77 3093.21 9296.93 3039.51 9263.52 2968.47C9230.12 2897.43 9213.42 2810.11 9213.42 2706.51C9213.42 2609.25 9232.02 2525.1 9269.23 2454.06C9306.87 2383.02 9361.63 2328.05 9433.51 2289.15C9505.82 2250.25 9593.99 2230.8 9698.01 2230.8C9747.06 2230.8 9795.48 2236.08 9843.26 2246.65C9891.04 2257.22 9934.38 2270.97 9973.29 2287.88L9907.96 2445.18C9879.62 2430.81 9847.28 2418.76 9810.91 2409.03C9774.54 2399.3 9736.49 2394.44 9696.74 2394.44C9639.65 2394.44 9589.97 2407.55 9547.68 2433.77C9505.82 2459.98 9473.26 2496.77 9450 2544.13C9427.17 2591.07 9415.75 2646.46 9415.75 2710.31C9415.75 2770.78 9424 2824.48 9440.49 2871.42C9456.98 2917.94 9482.99 2954.51 9518.51 2981.15C9554.03 3007.37 9600.33 3020.48 9657.41 3020.48C9685.32 3020.48 9708.79 3019.21 9727.82 3016.67C9747.27 3013.71 9765.45 3010.75 9782.37 3007.79V2814.34H9606.67V2650.69ZM10730 3171.44H10195.9V2244.12H10730V2405.22H10392.5V2608.83H10706.5V2769.94H10392.5V3009.06H10730V3171.44ZM12103.2 2706.51C12103.2 2777.97 12094.3 2843.09 12076.6 2901.87C12058.8 2960.22 12031.7 3010.54 11995.4 3052.83C11959.4 3095.11 11913.8 3127.67 11858.4 3150.51C11803 3172.92 11737.4 3184.12 11661.7 3184.12C11586.1 3184.12 11520.5 3172.92 11465.1 3150.51C11409.7 3127.67 11363.8 3095.11 11327.5 3052.83C11291.5 3010.54 11264.7 2960.01 11246.9 2901.23C11229.2 2842.46 11220.3 2777.12 11220.3 2705.24C11220.3 2609.25 11235.9 2525.74 11267.2 2454.7C11298.9 2383.24 11347.6 2327.84 11413.1 2288.52C11478.7 2249.19 11562 2229.53 11663 2229.53C11763.7 2229.53 11846.3 2249.19 11911 2288.52C11976.1 2327.84 12024.3 2383.24 12055.6 2454.7C12087.4 2526.16 12103.2 2610.1 12103.2 2706.51ZM11426.4 2706.51C11426.4 2771.2 11434.5 2827.02 11450.5 2873.96C11467 2920.47 11492.6 2956.42 11527.3 2981.79C11562 3006.74 11606.8 3019.21 11661.7 3019.21C11717.6 3019.21 11762.8 3006.74 11797.5 2981.79C11832.2 2956.42 11857.3 2920.47 11873 2873.96C11889 2827.02 11897.1 2771.2 11897.1 2706.51C11897.1 2609.25 11878.9 2532.71 11842.5 2476.9C11806.2 2421.08 11746.3 2393.17 11663 2393.17C11607.6 2393.17 11562.4 2405.86 11527.3 2431.23C11492.6 2456.18 11467 2492.12 11450.5 2539.06C11434.5 2585.57 11426.4 2641.39 11426.4 2706.51ZM12488.9 3171.44H12295.4V2244.12H12826.9V2405.22H12488.9V2644.35H12803.5V2804.82H12488.9V3171.44ZM13879.8 3171.44H13345.8V2244.12H13879.8V2405.22H13542.4V2608.83H13856.4V2769.94H13542.4V3009.06H13879.8V3171.44ZM14896.6 3171.44H14646.7L14243.3 2469.92H14237.6C14239.3 2499.1 14240.7 2528.49 14242 2558.09C14243.3 2587.69 14244.5 2617.29 14245.8 2646.89C14247.1 2676.06 14248.4 2705.45 14249.6 2735.05V3171.44H14073.9V2244.12H14321.9L14724.7 2938.66H14729.1C14728.3 2909.9 14727.2 2881.36 14726 2853.03C14724.7 2824.7 14723.4 2796.36 14722.2 2768.03C14721.3 2739.7 14720.5 2711.37 14719.6 2683.04V2244.12H14896.6V3171.44ZM15482.7 2650.69H15850.5V3131.48C15801.9 3147.55 15751.4 3160.44 15699 3170.17C15646.5 3179.47 15587.1 3184.12 15520.7 3184.12C15428.5 3184.12 15350.3 3165.94 15286 3129.57C15221.8 3093.21 15172.9 3039.51 15139.5 2968.47C15106.1 2897.43 15089.4 2810.11 15089.4 2706.51C15089.4 2609.25 15108 2525.1 15145.2 2454.06C15182.9 2383.02 15237.6 2328.05 15309.5 2289.15C15381.8 2250.25 15470 2230.8 15574 2230.8C15623.1 2230.8 15671.5 2236.08 15719.3 2246.65C15767 2257.22 15810.4 2270.97 15849.3 2287.88L15783.9 2445.18C15755.6 2430.81 15723.3 2418.76 15686.9 2409.03C15650.5 2399.3 15612.5 2394.44 15572.7 2394.44C15515.6 2394.44 15466 2407.55 15423.7 2433.77C15381.8 2459.98 15349.3 2496.77 15326 2544.13C15303.2 2591.07 15291.7 2646.46 15291.7 2710.31C15291.7 2770.78 15300 2824.48 15316.5 2871.42C15333 2917.94 15359 2954.51 15394.5 2981.15C15430 3007.37 15476.3 3020.48 15533.4 3020.48C15561.3 3020.48 15584.8 3019.21 15603.8 3016.67C15623.3 3013.71 15641.4 3010.75 15658.4 3007.79V2814.34H15482.7V2650.69ZM16071.9 3171.44V2244.12H16268.5V3171.44H16071.9ZM17324.6 3171.44H17074.7L16671.3 2469.92H16665.6C16667.3 2499.1 16668.8 2528.49 16670 2558.09C16671.3 2587.69 16672.6 2617.29 16673.8 2646.89C16675.1 2676.06 16676.4 2705.45 16677.7 2735.05V3171.44H16502V2244.12H16750L17152.7 2938.66H17157.2C17156.3 2909.9 17155.3 2881.36 17154 2853.03C17152.7 2824.7 17151.5 2796.36 17150.2 2768.03C17149.3 2739.7 17148.5 2711.37 17147.7 2683.04V2244.12H17324.6V3171.44ZM18092.7 3171.44H17558.7V2244.12H18092.7V2405.22H17755.3V2608.83H18069.3V2769.94H17755.3V3009.06H18092.7V3171.44ZM18820.9 3171.44H18286.8V2244.12H18820.9V2405.22H18483.5V2608.83H18797.4V2769.94H18483.5V3009.06H18820.9V3171.44ZM19285.2 2244.12C19369.3 2244.12 19438.7 2254.26 19493.2 2274.56C19548.2 2294.86 19589 2325.52 19615.6 2366.53C19642.3 2407.55 19655.6 2459.35 19655.6 2521.93C19655.6 2564.22 19647.6 2601.22 19631.5 2632.93C19615.4 2664.65 19594.3 2691.5 19568.1 2713.49C19541.9 2735.47 19513.5 2753.45 19483.1 2767.4L19755.8 3171.44H19537.6L19316.3 2815.6H19211.6V3171.44H19015V2244.12H19285.2ZM19271.2 2405.22H19211.6V2655.77H19275C19340.2 2655.77 19386.7 2644.98 19414.6 2623.42C19442.9 2601.43 19457.1 2569.29 19457.1 2527.01C19457.1 2483.03 19441.9 2451.74 19411.4 2433.13C19381.4 2414.53 19334.7 2405.22 19271.2 2405.22ZM19872.5 3171.44V2244.12H20069.2V3171.44H19872.5ZM21125.2 3171.44H20875.3L20471.9 2469.92H20466.2C20467.9 2499.1 20469.4 2528.49 20470.7 2558.09C20471.9 2587.69 20473.2 2617.29 20474.5 2646.89C20475.7 2676.06 20477 2705.45 20478.3 2735.05V3171.44H20302.6V2244.12H20550.6L20953.4 2938.66H20957.8C20956.9 2909.9 20955.9 2881.36 20954.6 2853.03C20953.4 2824.7 20952.1 2796.36 20950.8 2768.03C20950 2739.7 20949.1 2711.37 20948.3 2683.04V2244.12H21125.2V3171.44ZM21711.3 2650.69H22079.2V3131.48C22030.6 3147.55 21980 3160.44 21927.6 3170.17C21875.2 3179.47 21815.8 3184.12 21749.4 3184.12C21657.2 3184.12 21579 3165.94 21514.7 3129.57C21450.4 3093.21 21401.6 3039.51 21368.2 2968.47C21334.8 2897.43 21318.1 2810.11 21318.1 2706.51C21318.1 2609.25 21336.7 2525.1 21373.9 2454.06C21411.5 2383.02 21466.3 2328.05 21538.2 2289.15C21610.5 2250.25 21698.6 2230.8 21802.7 2230.8C21851.7 2230.8 21900.1 2236.08 21947.9 2246.65C21995.7 2257.22 22039 2270.97 22077.9 2287.88L22012.6 2445.18C21984.3 2430.81 21951.9 2418.76 21915.6 2409.03C21879.2 2399.3 21841.1 2394.44 21801.4 2394.44C21744.3 2394.44 21694.6 2407.55 21652.3 2433.77C21610.5 2459.98 21577.9 2496.77 21554.7 2544.13C21531.8 2591.07 21520.4 2646.46 21520.4 2710.31C21520.4 2770.78 21528.6 2824.48 21545.1 2871.42C21561.6 2917.94 21587.6 2954.51 21623.2 2981.15C21658.7 3007.37 21705 3020.48 21762.1 3020.48C21790 3020.48 21813.4 3019.21 21832.5 3016.67C21851.9 3013.71 21870.1 3010.75 21887 3007.79V2814.34H21711.3V2650.69Z" fill="#00629B"/>
<path d="M5200.35 4868.73V3658.86H5456.89V4868.73H5200.35ZM6458.22 4868.73H5761.43V3658.86H6458.22V3869.06H6017.96V4134.7H6427.6V4344.89H6017.96V4656.88H6458.22V4868.73ZM7408.23 4868.73H6711.44V3658.86H7408.23V3869.06H6967.98V4134.7H7377.61V4344.89H6967.98V4656.88H7408.23V4868.73ZM8358.25 4868.73H7661.46V3658.86H8358.25V3869.06H7918V4134.7H8327.63V4344.89H7918V4656.88H8358.25V4868.73ZM9765.89 4532.75C9765.89 4604.47 9748.52 4666.81 9713.76 4719.77C9679 4772.73 9628.25 4813.56 9561.49 4842.25C9495.29 4870.93 9414.74 4885.28 9319.85 4885.28C9277.92 4885.28 9236.82 4882.52 9196.55 4877C9156.83 4871.49 9118.48 4863.49 9081.52 4853C9045.11 4841.97 9010.35 4828.45 8977.25 4812.45V4574.12C9034.62 4599.5 9094.21 4622.4 9156 4642.81C9217.79 4663.22 9279.03 4673.43 9339.71 4673.43C9381.64 4673.43 9415.29 4667.91 9440.67 4656.88C9466.6 4645.84 9485.36 4630.67 9496.94 4611.36C9508.53 4592.05 9514.32 4569.98 9514.32 4545.16C9514.32 4514.82 9504.12 4488.89 9483.7 4467.37C9463.29 4445.85 9435.15 4425.72 9399.29 4406.96C9363.99 4388.2 9323.99 4368.06 9279.3 4346.55C9251.16 4333.31 9220.55 4317.31 9187.44 4298.55C9154.34 4279.24 9122.9 4255.8 9093.1 4228.21C9063.31 4200.63 9038.76 4167.25 9019.45 4128.08C9000.7 4088.36 8991.32 4040.91 8991.32 3985.74C8991.32 3913.47 9007.87 3851.68 9040.97 3800.37C9074.07 3749.06 9121.24 3709.89 9182.48 3682.86C9244.27 3655.28 9317.09 3641.48 9400.95 3641.48C9463.84 3641.48 9523.7 3648.93 9580.53 3663.83C9637.9 3678.17 9697.76 3699.14 9760.1 3726.72L9677.35 3926.16C9621.63 3903.54 9571.7 3886.16 9527.56 3874.02C9483.43 3861.33 9438.46 3854.99 9392.67 3854.99C9360.68 3854.99 9333.37 3860.23 9310.75 3870.71C9288.13 3880.64 9271.03 3894.99 9259.44 3913.74C9247.85 3931.95 9242.06 3953.19 9242.06 3977.47C9242.06 4006.15 9250.34 4030.43 9266.89 4050.29C9283.99 4069.6 9309.37 4088.36 9343.02 4106.56C9377.23 4124.77 9419.71 4146.01 9470.46 4170.28C9532.25 4199.52 9584.94 4230.14 9628.52 4262.14C9672.66 4293.59 9706.59 4330.83 9730.31 4373.86C9754.03 4416.34 9765.89 4469.3 9765.89 4532.75ZM10451.9 4868.73H10195.4V3872.37H9866.85V3658.86H10780.5V3872.37H10451.9V4868.73ZM11951.4 3658.86V4441.72C11951.4 4525.02 11932.9 4600.33 11896 4667.63C11859.6 4734.39 11804.1 4787.35 11729.6 4826.52C11655.7 4865.69 11562.5 4885.28 11449.9 4885.28C11289.9 4885.28 11168 4844.45 11084.2 4762.8C11000.3 4681.15 10958.4 4573.02 10958.4 4438.41V3658.86H11214.1V4399.51C11214.1 4499.37 11234.5 4569.43 11275.3 4609.71C11316.2 4649.98 11376.6 4670.12 11456.6 4670.12C11512.8 4670.12 11558.3 4660.46 11593.1 4641.15C11628.4 4621.84 11654.3 4592.05 11670.9 4551.78C11687.4 4511.51 11695.7 4460.2 11695.7 4397.86V3658.86H11951.4ZM13251.5 4252.21C13251.5 4388.48 13225.3 4502.4 13172.9 4593.98C13121 4685.01 13045.7 4753.7 12947 4800.04C12848.2 4845.83 12729.3 4868.73 12590.3 4868.73H12247.7V3658.86H12627.5C12754.4 3658.86 12864.5 3681.48 12957.7 3726.72C13051 3771.41 13123.2 3837.89 13174.5 3926.16C13225.8 4013.88 13251.5 4122.56 13251.5 4252.21ZM12985 4258.83C12985 4169.46 12971.8 4096.08 12945.3 4038.7C12919.4 3980.78 12880.8 3938.02 12829.4 3910.43C12778.7 3882.85 12715.8 3869.06 12640.8 3869.06H12504.2V4656.88H12614.3C12739.5 4656.88 12832.5 4623.5 12893.2 4556.74C12954.4 4489.99 12985 4390.68 12985 4258.83ZM14199 4868.73H13502.2V3658.86H14199V3869.06H13758.8V4134.7H14168.4V4344.89H13758.8V4656.88H14199V4868.73ZM15525.6 4868.73H15199.5L14673.2 3953.47H14665.8C14668 3991.53 14669.9 4029.88 14671.6 4068.5C14673.2 4107.11 14674.9 4145.73 14676.5 4184.35C14678.2 4222.42 14679.8 4260.76 14681.5 4299.38V4868.73H14452.3V3658.86H14775.8L15301.3 4565.02H15307.1C15306 4527.5 15304.6 4490.26 15303 4453.3C15301.3 4416.34 15299.7 4379.37 15298 4342.41C15296.9 4305.45 15295.8 4268.48 15294.7 4231.52V3658.86H15525.6V4868.73ZM16297.7 4868.73H16041.1V3872.37H15712.6V3658.86H16626.2V3872.37H16297.7V4868.73ZM17252.7 3658.86H17629.2C17790.3 3658.86 17912.2 3681.48 17995 3726.72C18077.7 3771.96 18119.1 3851.4 18119.1 3965.05C18119.1 4010.84 18111.6 4052.22 18096.7 4089.18C18082.4 4126.15 18061.4 4156.49 18033.9 4180.21C18006.3 4203.94 17972.6 4219.38 17932.9 4226.56V4234.83C17973.2 4243.11 18009.6 4257.45 18042.1 4277.86C18074.7 4297.72 18100.6 4326.96 18119.9 4365.58C18139.8 4403.65 18149.7 4454.4 18149.7 4517.85C18149.7 4591.22 18131.8 4654.12 18095.9 4706.53C18060.1 4758.94 18008.8 4799.21 17942 4827.35C17875.8 4854.93 17796.9 4868.73 17705.3 4868.73H17252.7V3658.86ZM17509.2 4138.01H17658.1C17732.6 4138.01 17784.2 4126.42 17812.9 4103.25C17841.6 4079.53 17855.9 4044.77 17855.9 3998.98C17855.9 3952.64 17838.8 3919.54 17804.6 3899.68C17771 3879.26 17717.5 3869.06 17644.1 3869.06H17509.2V4138.01ZM17509.2 4341.58V4656.88H17676.4C17753.6 4656.88 17807.4 4641.98 17837.7 4612.19C17868.1 4582.4 17883.2 4542.4 17883.2 4492.2C17883.2 4462.4 17876.6 4436.2 17863.4 4413.58C17850.1 4390.96 17827.8 4373.31 17796.3 4360.62C17765.5 4347.93 17722.7 4341.58 17668.1 4341.58H17509.2ZM18743.9 3658.86C18853.7 3658.86 18944.1 3672.1 19015.3 3698.58C19087 3725.07 19140.3 3765.06 19175 3818.58C19209.8 3872.09 19227.2 3939.67 19227.2 4021.33C19227.2 4076.49 19216.7 4124.77 19195.7 4166.14C19174.8 4207.52 19147.2 4242.55 19113 4271.24C19078.8 4299.93 19041.8 4323.38 19002.1 4341.58L19357.9 4868.73H19073.2L18784.4 4404.48H18647.9V4868.73H18391.4V3658.86H18743.9ZM18725.7 3869.06H18647.9V4195.94H18730.6C18815.6 4195.94 18876.3 4181.87 18912.7 4153.73C18949.7 4125.04 18968.1 4083.11 18968.1 4027.95C18968.1 3970.57 18948.3 3929.74 18908.6 3905.47C18869.4 3881.2 18808.4 3869.06 18725.7 3869.06ZM20250.8 4868.73L20163.1 4580.74H19722L19634.3 4868.73H19357.9L19784.9 3653.9H20098.6L20527.2 4868.73H20250.8ZM20101.9 4365.58L20014.2 4084.22C20008.6 4065.46 20001.2 4041.46 19991.8 4012.22C19983 3982.43 19973.9 3952.36 19964.5 3922.02C19955.7 3891.13 19948.5 3864.37 19943 3841.75C19937.5 3864.37 19929.7 3892.5 19919.8 3926.16C19910.4 3959.26 19901.3 3990.71 19892.5 4020.5C19883.7 4050.29 19877.3 4071.53 19873.5 4084.22L19786.6 4365.58H20101.9ZM21753.6 4868.73H21427.6L20901.3 3953.47H20893.8C20896 3991.53 20898 4029.88 20899.6 4068.5C20901.3 4107.11 20902.9 4145.73 20904.6 4184.35C20906.2 4222.42 20907.9 4260.76 20909.6 4299.38V4868.73H20680.3V3658.86H21003.9L21529.4 4565.02H21535.2C21534.1 4527.5 21532.7 4490.26 21531 4453.3C21529.4 4416.34 21527.7 4379.37 21526.1 4342.41C21525 4305.45 21523.9 4268.48 21522.8 4231.52V3658.86H21753.6V4868.73ZM22572.9 3854.99C22523.8 3854.99 22480.2 3864.64 22442.2 3883.95C22404.6 3902.71 22372.9 3930.02 22347 3965.88C22321.6 4001.74 22302.3 4045.05 22289.1 4095.8C22275.8 4146.56 22269.2 4203.66 22269.2 4267.1C22269.2 4352.62 22279.7 4425.72 22300.7 4486.4C22322.2 4546.54 22355.3 4592.6 22400 4624.6C22444.6 4656.05 22502.3 4671.77 22572.9 4671.77C22622 4671.77 22671.1 4666.26 22720.2 4655.22C22769.9 4644.19 22823.7 4628.46 22881.6 4608.05V4823.21C22828.1 4845.28 22775.4 4861 22723.5 4870.38C22671.7 4880.31 22613.5 4885.28 22548.9 4885.28C22424.2 4885.28 22321.6 4859.62 22241.1 4808.32C22161.1 4756.46 22101.8 4684.19 22063.1 4591.5C22024.5 4498.26 22005.2 4389.58 22005.2 4265.45C22005.2 4173.87 22017.6 4090.01 22042.5 4013.88C22067.3 3937.74 22103.7 3871.82 22151.7 3816.1C22199.7 3760.37 22259 3717.34 22329.6 3687C22400.2 3656.66 22481.3 3641.48 22572.9 3641.48C22633 3641.48 22693.2 3649.21 22753.3 3664.66C22814 3679.55 22871.9 3700.24 22927.1 3726.72L22844.3 3935.26C22799.1 3913.74 22753.6 3894.99 22707.8 3878.99C22662 3862.99 22617 3854.99 22572.9 3854.99ZM24131.2 4868.73H23875.5V4346.55H23396.3V4868.73H23139.8V3658.86H23396.3V4133.04H23875.5V3658.86H24131.2V4868.73Z" fill="#00B5E2"/>
<path fill-rule="evenodd" clip-rule="evenodd" d="M1131.83 645.472C1131.83 645.472 1031.5 1122.05 1011.43 1252.51C991.363 1382.96 1109.7 1378.65 1109.7 1378.65C1109.7 1378.65 1637.18 1387.21 1695.26 1388.65C1753.33 1390.09 1768.39 1373.65 1768.39 1373.65C1768.39 1373.65 1878.04 1312.7 1926.05 1284.76C1974.06 1256.82 1975.5 1221 1975.5 1221C1975.5 1221 2060.14 727.047 2078.02 607.528C2095.9 488.009 1977.69 494.26 1977.69 494.26C1977.69 494.26 1551.79 494.948 1352.56 494.26C1153.33 493.573 1131.83 645.472 1131.83 645.472ZM840.975 2086.23C820.425 2186.8 802.759 2273.25 794.511 2311.05C768.693 2429.07 899.595 2433.82 899.595 2433.82C899.595 2433.82 1460.52 2455.32 1628.24 2458.2C1795.96 2461.07 1781.15 2312.92 1781.15 2312.92L1725.76 1511.23C1725.76 1511.23 1265.11 1498.8 1123.7 1496.42C982.299 1494.04 948.355 1585.31 948.355 1585.31C941.216 1595.68 884.596 1872.76 840.975 2086.23ZM706.118 2730.05C706.118 2730.05 591.595 3303.89 566.59 3428.6C541.71 3553.25 646.356 3555.18 646.356 3555.18C646.356 3555.18 1248.48 3597.82 1404.2 3603.44C1559.92 3609.07 1581.92 3477.8 1581.92 3477.8C1581.92 3477.8 1696.38 2833.69 1716.45 2719.99C1736.51 2606.28 1649.56 2586.22 1649.56 2586.22C1649.56 2586.22 1068.69 2562.78 899.907 2559.46C731.123 2556.15 706.118 2730.05 706.118 2730.05ZM640.48 3699.02C640.48 3699.02 781.571 3809.35 856.586 3868.61C931.601 3927.87 1043.19 3935.49 1043.19 3935.49C1043.19 3935.49 1740.83 3986.13 1811.53 3991.38C1882.23 3996.63 1835.41 3955.06 1835.41 3955.06C1835.41 3955.06 1697.76 3827.48 1625.18 3762.53C1552.6 3697.58 1481.4 3698.02 1481.4 3698.02C1481.4 3698.02 795.324 3654.14 666.298 3645.51C537.272 3636.89 640.48 3699.02 640.48 3699.02ZM1098.82 3990.44C995.677 3983.75 1072.57 4035.82 1072.57 4035.82C1072.57 4035.82 1218.78 4151.28 1269.92 4190.47C1321.05 4229.67 1416.57 4236.36 1416.57 4236.36C1416.57 4236.36 1834.16 4267.86 1877.67 4269.3C1913.55 4270.19 1912.58 4251.97 1912.58 4251.97C1912.58 4251.97 1905.86 4142.09 1902.98 4093.02C1900.11 4043.95 1849.47 4043.01 1849.47 4043.01C1849.47 4043.01 1201.97 3997.13 1098.82 3990.44ZM1591.83 4442.39C1643.66 4481.75 1656.45 4484.57 1679.66 4486.74C1702.86 4488.91 1929.49 4506.84 1929.49 4506.84C1929.49 4506.84 1924.3 4399.63 1922.36 4357.31C1920.43 4314.99 1886.48 4313.55 1886.48 4313.55C1886.48 4313.55 1602.55 4292.05 1480.15 4281.55C1357.75 4271.05 1445.27 4326.43 1445.27 4326.43C1445.27 4326.43 1539.99 4403.03 1591.83 4442.39Z" fill="#00629B"/>
<path fill-rule="evenodd" clip-rule="evenodd" d="M4662.65 1740.94V966.085H4662.78C4662.78 902.512 4635.71 947.207 4635.71 947.207C4635.71 947.207 4603.39 991.152 4585.7 1013.16C4575.01 1027.15 4569.31 1057.33 4569.51 1074.93V1882.92C4569.51 1935.05 4596.26 1900.61 4596.26 1900.61C4596.26 1900.61 4637.77 1830.85 4652.15 1802.22C4660.58 1786.73 4663.24 1758.51 4662.65 1740.94ZM3709.46 849.004C3709.46 849.004 3667.89 882.947 3606.69 930.267H3606.82C3545.68 977.524 3623.07 974.399 3623.07 974.399C3623.07 974.399 4326.9 975.524 4417.67 974.399C4508.43 973.274 4524.69 943.144 4524.69 943.144C4524.69 943.144 4552.44 907.263 4580.14 871.945C4607.83 836.627 4556.69 837.065 4556.69 837.065H3771.54C3719.96 837.065 3709.46 849.004 3709.46 849.004ZM4360.22 1141.43C4360.22 1141.43 4384.1 1109.23 4426.17 1059.22C4468.18 1009.09 4418.35 1009.09 4418.35 1009.09C4418.35 1009.09 3586.5 1008.59 3547.3 1009.09C3522.57 1010.08 3498.81 1019.05 3479.6 1034.66C3479.6 1034.66 3415.03 1086.48 3363.95 1123.99C3312.88 1161.49 3366.83 1161.49 3366.83 1161.49C3366.83 1161.49 4167.12 1170.05 4252.19 1169.12C4337.27 1168.18 4360.22 1141.43 4360.22 1141.43ZM2717.01 856.193C2717.01 856.193 2637.75 908.263 2587.05 938.831C2536.41 969.398 2590.05 965.647 2590.05 965.647C2590.05 965.647 3315.88 969.023 3370.33 969.023C3424.78 969.023 3440.09 955.646 3440.09 955.646C3440.09 955.646 3499.61 914.452 3547.43 877.196C3595.25 839.94 3536.49 840.44 3536.49 840.44H2796.34C2740.45 840.44 2717.01 856.193 2717.01 856.193ZM2429.89 1027.22C2429.89 1027.22 2356.72 1073.85 2283.85 1119.18C2209.33 1162.62 2295.74 1163.05 2295.74 1163.05C2295.74 1163.05 2949.93 1161.62 3067.89 1163.05C3185.86 1164.49 3211.67 1138.67 3211.67 1138.67C3211.67 1138.67 3302.07 1070.54 3347.89 1036.91C3393.71 1003.28 3344.01 1005.65 3344.01 1005.65C3344.01 1005.65 2559.98 1005.22 2514.1 1005.65C2484.78 1006.56 2456.03 1013.92 2429.89 1027.22ZM3063.46 1208.31C3063.46 1208.31 2336.68 1195.87 2237.29 1196.87H2237.41C2138.08 1197.81 2104.64 1222.38 2104.64 1222.38C2104.64 1222.38 2008.18 1281.57 1915.91 1336.52C1823.64 1391.47 1922.6 1386.21 1922.6 1386.21C1922.6 1386.21 2688.57 1400.59 2789.34 1397.72C2890.11 1394.84 2941.74 1349.46 2941.74 1349.46C2941.74 1349.46 3039.58 1273.76 3087.34 1238.88C3135.1 1204 3063.46 1208.31 3063.46 1208.31ZM2006.99 2541.34C2006.99 2541.34 2648.37 2571.4 2782.15 2567.59C2915.93 2563.78 2901.55 2437.88 2901.55 2437.88C2901.55 2437.88 2873.79 1711.89 2867.6 1605.12C2861.42 1498.36 2752.96 1492.61 2752.96 1492.61C2752.96 1492.61 2089.32 1474.48 1941.67 1472.54C1794.01 1470.6 1802.58 1624 1802.58 1624C1802.58 1624 1848.21 2265.6 1858.84 2401.31C1869.47 2537.02 2006.99 2541.34 2006.99 2541.34ZM1881.03 2777.37C1881.03 2777.37 1925.41 3425.23 1931.67 3545.62C1937.85 3666.01 2061.82 3667.26 2061.82 3667.26C2061.82 3667.26 2670.06 3707.71 2813.91 3715.52C2957.75 3723.34 2947.18 3596.75 2947.18 3596.75C2947.18 3596.75 2926.93 2995.72 2921.18 2851.88C2915.43 2708.05 2793.59 2696.61 2793.59 2696.61C2793.59 2696.61 2161.02 2670.36 2015.74 2663.67C1870.47 2656.98 1881.03 2777.37 1881.03 2777.37ZM2132.83 4744.5C2132.83 4744.5 2714.32 4795.01 2861.48 4800.76C3008.63 4806.26 2996.19 4696.43 2996.19 4696.43C2996.19 4696.43 2970.37 4087.33 2962.75 3965.94C2955.12 3844.54 2852.35 3843.6 2852.35 3843.6C2852.35 3843.6 2254.79 3803.1 2097.95 3793.97C1941.1 3784.85 1953.61 3924.87 1953.61 3924.87C1953.61 3924.87 2000.87 4544.84 2007.12 4642.29C2013.37 4739.75 2132.83 4744.5 2132.83 4744.5ZM3101.78 1497.86C2991.82 1499.48 3004.32 1618.25 3004.32 1618.25C3004.32 1618.25 3026.76 2357.37 3032.01 2464.89C3037.26 2572.4 3177.29 2581.97 3177.29 2581.97C3177.29 2581.97 3884.14 2607.72 3999.29 2610.59C4114.44 2613.47 4119.54 2480.2 4119.54 2480.2V1804.09L4117.11 1655.51C4114.73 1506.92 4007.21 1509.3 4007.21 1509.3C4007.21 1509.3 3211.74 1496.23 3101.78 1497.86ZM3175.35 2712.36C3032.51 2707.11 3048.77 2831.82 3048.77 2831.82C3048.77 2831.82 3071.27 3467.23 3076.02 3601.5C3080.77 3735.78 3209.3 3739.59 3209.3 3739.59C3209.3 3739.59 3844.36 3782.1 3993.39 3789.28C4142.42 3796.47 4144.36 3667.45 4144.36 3667.45C4144.36 3667.45 4136.23 3030.1 4133.86 2889.14C4131.48 2748.18 4020.59 2748.18 4020.59 2748.18C4020.59 2748.18 3318.19 2717.61 3175.35 2712.36ZM3247.99 4835.14C3247.99 4835.14 3861.49 4889.08 4012.46 4901.59C4163.49 4914.02 4158.18 4798.88 4158.18 4798.88C4158.18 4798.88 4151.42 4174.41 4149.05 4051.14C4146.67 3927.87 4039.65 3916.37 4039.65 3916.37C4039.65 3916.37 3377.77 3873.36 3228.8 3866.67C3079.83 3859.98 3091.27 3995.19 3091.27 3995.19C3091.27 3995.19 3115.22 4580.03 3121.41 4704.74C3127.59 4829.45 3247.99 4835.14 3247.99 4835.14ZM3096.46 1404.65C3096.46 1404.65 3945.07 1415.22 4028.65 1415.22C4079.33 1414.97 4128.67 1398.93 4169.8 1369.34C4169.8 1369.34 4209.56 1320.58 4257.32 1264.19C4305.08 1207.81 4184.68 1209.75 4184.68 1209.75C4184.68 1209.75 3406.84 1211.19 3333.26 1209.75C3290.36 1208.33 3248.32 1222.02 3214.49 1248.44C3214.49 1248.44 3159.47 1295.26 3090.71 1351.65C3021.95 1408.03 3096.46 1404.65 3096.46 1404.65ZM4217.88 1581.43C4217.88 1581.43 4216.94 2404.19 4217.88 2480.2H4217.94C4218.88 2555.9 4253.26 2513.14 4253.26 2513.14C4253.26 2513.14 4314.33 2411.38 4335.4 2375.06C4356.47 2338.74 4359.78 2275.67 4359.78 2275.67V1347.33C4359.78 1282.82 4312.96 1359.27 4312.96 1359.27C4312.96 1359.27 4289.52 1391.34 4249.88 1444.35C4210.25 1497.36 4217.88 1581.43 4217.88 1581.43ZM4229.88 2793.44C4229.88 2793.44 4228.69 3526.99 4230.38 3637.82C4232.25 3748.71 4268.2 3655.33 4268.2 3655.33C4268.2 3655.33 4321.71 3533.49 4347.46 3468.55C4362.81 3429.32 4370.47 3387.52 4370.03 3345.4C4370.03 3345.4 4370.47 2583.9 4370.03 2526.96C4369.59 2470.01 4339.46 2514.46 4339.46 2514.46C4339.46 2514.46 4296.95 2584.22 4261.13 2655.92C4239.77 2698.56 4229.04 2745.75 4229.88 2793.44ZM4393.07 4303.72C4393.05 4297.13 4393.02 4290.34 4393.02 4283.31C4393.02 4253.31 4390.99 4130.32 4388.83 3998.62C4386.59 3862.73 4384.2 3717.57 4383.72 3655.7C4382.78 3533.87 4340.71 3638.01 4340.71 3638.01C4340.71 3638.01 4293.45 3758.9 4266.2 3824.85C4238.94 3890.8 4241.82 4011.19 4241.82 4011.19C4241.82 4011.19 4241.76 4647.05 4242.76 4746.5C4243.76 4845.95 4278.14 4752.19 4278.14 4752.19L4381.85 4422.98C4393.42 4390.27 4393.27 4352.85 4393.07 4303.72ZM4486.93 1133.99C4486.93 1133.99 4475.49 1149.24 4435.79 1201.31V1201.12C4412.1 1233.25 4400.44 1272.67 4402.85 1312.52C4402.85 1312.52 4402.35 2092.01 4405.23 2168.9C4408.1 2245.79 4444.42 2174.59 4444.42 2174.59C4444.42 2174.59 4480.24 2117.71 4506.06 2067.07C4531.88 2016.44 4529 1944.3 4529 1944.3C4529 1944.3 4529.5 1252.01 4529 1163.62C4528.5 1075.23 4486.93 1133.99 4486.93 1133.99ZM4435.79 2338.93C4397.85 2409.19 4404.54 2499.02 4404.54 2499.02L4404.29 2498.83C4404.29 2498.83 4411.6 3170.12 4412.23 3240.82C4412.85 3311.52 4437.23 3257.07 4437.23 3257.07C4437.23 3257.07 4514.62 3078.17 4522.25 3059.73C4529.88 3041.29 4528.94 3009.72 4528.94 3009.72C4528.94 3009.72 4527.5 2305.49 4528.94 2231.91C4530.38 2158.34 4500.31 2217.1 4500.31 2217.1C4500.31 2217.1 4473.74 2268.67 4435.79 2338.93ZM4439.17 4289.74C4439.17 4289.74 4500.37 4112.46 4517.06 4060.39L4516.56 4060.2C4527.14 4025.39 4532.78 3989.26 4533.31 3952.87C4533.31 3952.87 4533.31 3356.15 4532.81 3263.45C4532.81 3262.71 4532.81 3261.91 4532.81 3261.05C4532.77 3246.83 4532.7 3216.84 4524.62 3215.19C4518.62 3213.94 4509.59 3228.45 4503.18 3244.32C4482.8 3294.82 4462.74 3345.4 4445.61 3389.48C4445.1 3390.79 4444.55 3392.18 4443.97 3393.67C4437.4 3410.33 4426.36 3438.34 4421.21 3476.77C4418.63 3496.05 4418.65 3526.49 4418.66 3547.8C4418.67 3549.76 4418.67 3551.64 4418.67 3553.43C4418.67 3553.43 4419.6 4170.78 4418.17 4260.11C4416.73 4349.44 4439.17 4289.74 4439.17 4289.74ZM4596.89 3844.92C4596.89 3844.92 4635.09 3728.27 4652.72 3680.96C4662.79 3652.99 4662.48 3608.7 4662.36 3590.76C4662.35 3589.11 4662.34 3587.68 4662.34 3586.51V2926.46C4662.34 2869.76 4632.21 2945.21 4632.21 2945.21C4632.21 2945.21 4605.45 3012.16 4585.89 3063.23C4575.72 3089.77 4571.07 3143.55 4571.07 3161.68C4571.07 3161.68 4572.01 3769.34 4571.07 3840.1C4570.13 3910.87 4596.89 3844.92 4596.89 3844.92ZM4623.64 2831.57C4647.47 2782.71 4661.27 2729.57 4664.22 2675.29L4663.72 2675.11C4663.72 2675.11 4664.65 2029.19 4664.22 1974.43C4663.78 1919.67 4640.34 1969.68 4640.34 1969.68C4640.34 1969.68 4612.97 2012.93 4588.09 2053.56C4567.05 2087.93 4568.9 2134.67 4568.9 2134.67C4568.9 2134.67 4569.13 2792.94 4568.2 2862.2C4567.26 2931.46 4584.89 2907.58 4584.89 2907.58L4623.64 2831.57Z" fill="#00B5E2"/>
</svg>
